HIERARCHY
ROOT Hips
{
  OFFSET -213.699 104.721 0.752556
  CHANNELS 6 Xposition Yposition Zposition Zrotation Xrotation Yrotation
  JOINT RightUpLeg
  {
    OFFSET -8.9458 -8.66707 0.101652
    CHANNELS 3 Zrotation Xrotation Yrotation
    JOINT RightLeg
    {
      OFFSET 0 -44.4227 1.3727
      CHANNELS 3 Zrotation Xrotation Yrotation
      JOINT RightFoot
      {
        OFFSET 0.253549 -42.0924 -1.46059
        CHANNELS 3 Zrotation Xrotation Yrotation
        JOINT RightToes
        {
          OFFSET 0.04 -4.41509 8.4991
          CHANNELS 3 Zrotation Xrotation Yrotation
          End Site
          {
            OFFSET -0.08 -0.137448 9.77979
          }
        }
      }
    }
  }
  JOINT Spine
  {
    OFFSET 0 11.8905 0
    CHANNELS 3 Zrotation Xrotation Yrotation
    JOINT Spine1
    {
      OFFSET 0 25.6574 0.127663
      CHANNELS 3 Zrotation Xrotation Yrotation
      JOINT HEad
      {
        OFFSET 0 8.73416 0.011341
        CHANNELS 3 Zrotation Xrotation Yrotation
        End Site
        {
          OFFSET -0.29 12.7742 2.51395
        }
      }
      JOINT LeftShoulder1
      {
        OFFSET 8.99 -0.362252 -0.22
        CHANNELS 3 Zrotation Xrotation Yrotation
        JOINT LeftArm
        {
          OFFSET 10.2827 -0.00337999 0.322123
          CHANNELS 3 Zrotation Xrotation Yrotation
          JOINT LeftForeArm
          {
            OFFSET 26.2597 0.099144 -1.42434
            CHANNELS 3 Zrotation Xrotation Yrotation
            JOINT LeftHand
            {
              OFFSET 22.0902 0.085362 1.02216
              CHANNELS 3 Zrotation Xrotation Yrotation
              End Site
              {
                OFFSET 13.419 -0.6 1.50291
              }
            }
          }
        }
      }
      JOINT RightShoulder
      {
        OFFSET -8.99 -0.362252 -0.22
        CHANNELS 3 Zrotation Xrotation Yrotation
        JOINT RightArm
        {
          OFFSET -10.2827 -0.00338 0.322123
          CHANNELS 3 Zrotation Xrotation Yrotation
          JOINT RightForeArm
          {
            OFFSET -26.364 0.099144 -1.42434
            CHANNELS 3 Zrotation Xrotation Yrotation
            JOINT RightHand
            {
              OFFSET -22.0324 0.085362 1.02216
              CHANNELS 3 Zrotation Xrotation Yrotation
              End Site
              {
                OFFSET -13.3284 -0.6 1.50291
              }
            }
          }
        }
      }
    }
  }
  JOINT LeftUpLeg
  {
    OFFSET 8.9458 -8.66707 0.101652
    CHANNELS 3 Zrotation Xrotation Yrotation
    JOINT LeftLeg
    {
      OFFSET 0 -44.4227 1.3727
      CHANNELS 3 Zrotation Xrotation Yrotation
      JOINT LeftFoot
      {
        OFFSET -0.253549 -42.0924 -1.46059
        CHANNELS 3 Zrotation Xrotation Yrotation
        JOINT LeftToes
        {
          OFFSET -0.04 -4.41509 8.4991
          CHANNELS 3 Zrotation Xrotation Yrotation
          End Site
          {
            OFFSET 0.08 -0.047448 9.77979
          }
        }
      }
    }
  }
}
MOTION
Frames:	14
Frame Time:	0.0333333
-222.342 102.666 -88.6348 1.17102 -0.673488 116.458 4.01706 -17.0544 9.8672 -1.68931 19.157 0.269422 5.46963 -2.83905 -0.369379 0.0462048 0.000530889 0.662642 -7.05562 7.4791 -1.51855 3.84276 4.48383 -2.75635 8.31026 15.4037 -17.0069 -30.2881 -3.30679 12.5866 -71.2735 -40.379 -33.6627 -144.126 80.7681 139.62 8.87901 9.276 -3.49865 31.3634 -1.59057 -8.33252 44.9502 -4.66326 16.7783 -0.0812475 42.2728 19.1221 -1.40134 9.86036 1.8543 -4.72238 -5.6661 -3.9404 2.47566 20.8196 6.81669 8.25284 -11.7066 0.354481 -1.34059e-009 8.75198e-006 -1.45983e-008 
-223.098 102.977 -88.2294 0.870498 -1.09296 112.834 3.28909 -15.9278 8.71323 -1.30551 20.7416 -2.88421 4.53146 -3.59331 -0.308547 0.0462048 0.000530889 0.662642 -6.59171 6.87917 -1.31247 3.95014 4.67395 -2.53074 8.13195 15.191 -16.2647 -30.6125 -3.5359 13.1281 -70.7704 -40.4043 -32.5232 -150.079 79.5189 145.398 8.58789 9.3181 -3.1956 31.2118 -1.61702 -8.42261 44.8941 -5.33145 16.7841 0.298205 43.0321 18.627 -1.81163 9.83024 2.36652 -4.33514 -5.57508 -2.48143 2.51462 18.7763 9.18849 7.58818 -10.7921 0.259782 -1.34059e-009 8.75198e-006 -1.45983e-008 
-223.638 103.093 -87.7629 0.680301 -1.09139 109.11 2.22882 -14.6498 8.36516 -0.979218 22.5153 -6.32927 2.42621 -4.80474 -0.213417 0.0462048 0.000530889 0.662642 -6.63255 6.45893 -0.957151 3.82505 4.69504 -2.12391 7.83153 15.1714 -15.3403 -30.8159 -3.59593 13.2377 -70.2093 -40.7345 -31.3748 -154.696 78.2724 149.998 8.31678 9.35789 -2.88662 31.5178 -1.68941 -8.57509 44.3439 -4.98209 16.7319 0.389533 42.4322 18.6485 -1.93093 9.81647 3.11203 -4.15624 -5.52784 -1.37097 2.25626 17.7242 11.7642 7.78601 -10.1887 0.220912 -1.34059e-009 8.75198e-006 -1.45983e-008 
-224.168 103.145 -87.2647 0.243678 -1.27145 105.615 0.956286 -13.7442 6.719 -0.804471 23.678 -8.52302 0.146945 -5.40326 -0.158353 0.0462048 0.000530889 0.662642 -5.91065 5.7367 -0.748884 2.99731 4.63468 -1.66395 7.6227 15.2489 -14.3485 -30.7977 -3.57986 13.1987 -70.2523 -41.2951 -30.607 -158.924 76.9229 154.618 8.13778 9.37893 -2.75335 31.7191 -1.74424 -8.69339 44.9438 -6.77035 17.1508 0.705003 44.6895 17.9353 -1.55528 9.8449 2.8979 -3.82437 -6.19656 -0.862547 2.04334 17.5136 14.6272 7.41455 -9.91037 0.192407 -1.34059e-009 8.75198e-006 -1.45983e-008 
-224.627 103.234 -86.7113 0.0962118 -1.34203 102.624 -0.402875 -12.2816 4.78569 -0.850089 23.8463 -9.96319 -1.33636 -6.25938 -0.148833 0.0462048 0.000530889 0.662642 -5.29396 5.44973 -0.656137 2.55968 4.69041 -1.43865 7.35083 15.1964 -13.1164 -31.0261 -3.68524 13.4226 -70.9412 -42.1156 -30.9122 -163.687 74.8864 160.298 8.11823 9.38835 -2.6251 31.7996 -1.72096 -8.62089 44.9442 -5.98669 17.1331 0.301363 44.0195 18.4509 -1.45456 9.85299 2.694 -3.53826 -6.39593 -0.613415 2.0092 17.1207 17.3188 6.78205 -9.53028 0.15476 -1.34059e-009 8.75198e-006 -1.45983e-008 
-224.964 103.349 -86.0766 0.101251 -1.4688 99.8742 -1.30526 -10.5123 3.98882 -1.0591 23.0186 -11.3369 -3.39677 -7.3667 -0.159688 0.0462048 0.000530889 0.662642 -4.58973 5.098 -0.559216 2.1338 4.86382 -1.21656 6.98541 15.312 -11.8685 -31.1752 -3.74169 13.5338 -71.9415 -43.2389 -31.3718 -167.256 72.6841 165.152 8.3696 9.35252 -2.90014 31.8202 -1.67968 -8.50856 45.1788 -6.24796 17.6525 1.00848 44.6698 17.6943 -1.62587 9.84149 2.577 -3.06179 -6.33964 -0.222467 2.05792 16.63 19.7336 6.09154 -9.05249 0.114201 -1.34059e-009 8.75198e-006 -1.45983e-008 
-225.254 103.428 -85.2856 -0.418491 -1.50435 96.916 -2.12192 -9.75562 4.16657 -1.33188 22.085 -11.882 -4.31674 -7.82886 -0.178931 0.0462048 0.000530889 0.662642 -4.46639 3.96695 -0.275479 2.1055 5.3515 -0.889571 6.45749 15.6784 -11.1034 -31.5202 -3.84136 13.7062 -72.8177 -43.759 -31.7627 -168.941 71.1845 167.605 8.8718 9.27762 -3.49755 31.6239 -1.53475 -8.15155 45.7511 -6.82044 17.9904 1.28691 45.4653 17.269 -1.4654 9.85342 2.34394 -2.46611 -6.94648 0.435649 1.82295 16.572 21.9307 5.36874 -8.62668 0.08318 -1.34059e-009 8.75198e-006 -1.45983e-008 
-225.478 103.503 -84.3356 -0.794382 -1.40916 94.1168 -2.85069 -8.91492 3.83217 -1.74529 20.6375 -10.6492 -4.63243 -7.91778 -0.183903 0.0462048 0.000530889 0.662642 -4.17431 3.49192 0.00770276 1.537 5.37404 -0.456254 6.2518 15.7931 -10.3333 -31.4706 -3.88058 13.8229 -73.7167 -44.7195 -32.3597 -170.486 69.3993 170.303 9.34189 9.14556 -4.747 31.6124 -1.5867 -8.2905 46.7994 -8.51543 18.7329 1.98484 48.6229 16.1068 -1.60518 9.8417 2.89631 -1.82432 -7.18051 1.09654 1.63981 16.2193 23.9653 4.73781 -8.15899 0.0538864 -1.34059e-009 8.75198e-006 -1.45983e-008 
-225.674 103.573 -83.2168 -0.879624 -1.21491 92.4764 -3.51765 -7.63267 2.3293 -2.25624 18.607 -9.56194 -4.24943 -7.87442 -0.18048 0.0462048 0.000530889 0.662642 -4.45724 3.29814 -0.135238 1.56271 5.47176 -0.617602 5.91465 15.8231 -9.26642 -31.3741 -3.82973 13.7127 -75.0466 -46.6384 -33.5527 -172.228 66.0474 174.125 10.3633 8.72721 -8.83153 31.688 -1.53348 -8.14007 47.4428 -9.05297 19.1638 2.47745 49.7921 15.4485 -1.305 9.8628 2.98362 -1.23207 -7.19829 1.50132 1.69847 16.0377 24.883 4.69189 -7.65981 0.0323361 -1.34059e-009 8.75198e-006 -1.45983e-008 
-225.871 103.618 -81.8993 -1.06986 -1.31094 91.4212 -3.83609 -6.53151 0.4693 -2.70956 16.4061 -9.55075 -4.59935 -7.05349 -0.140588 0.0462048 0.000530889 0.662642 -4.95127 3.49834 -0.341574 2.12875 5.16715 -0.967247 5.59802 15.7254 -8.46755 -31.7499 -4.08151 14.2766 -74.9631 -46.1667 -34.2642 -172.512 65.2799 174.241 10.3026 8.72145 -8.9771 31.6214 -1.55424 -8.20353 48.0011 -9.32802 19.3563 2.88591 50.7514 14.924 -1.64802 9.83692 3.04083 -0.386886 -7.41118 1.98278 1.75394 15.8888 25.3143 3.44435 -7.05314 0.00819896 -1.34059e-009 8.75198e-006 -1.45983e-008 
-225.871 103.65 -80.4962 -0.996855 -0.982247 90.2529 -4.09855 -5.34285 -0.743897 -2.98584 14.3646 -8.53516 -1.68692 -5.27666 -0.131863 0.0462048 0.000530889 0.662642 -4.77987 3.18481 -0.37316 1.52178 5.38065 -0.86035 5.9656 15.8087 -7.88762 -31.5127 -4.06419 14.2993 -75.2779 -46.0768 -34.9467 -172.877 64.1144 174.871 10.1324 8.721 -9.24354 31.9361 -1.47326 -7.95217 48.1602 -9.35367 18.9038 2.85597 51.0103 14.9285 -1.89164 9.81642 3.35639 0.383793 -7.11572 2.48039 1.79477 15.7037 25.8402 3.28357 -6.68976 -0.00323414 -1.34059e-009 8.75198e-006 -1.45983e-008 
-226.012 103.628 -78.9269 -1.24794 -0.839922 90.0316 -4.30639 -4.84164 -2.05311 -2.6275 12.6969 -6.63343 4.87025 -4.13471 -0.293628 0.0462048 0.000530889 0.662642 -5.21295 3.15336 -0.645824 2.15287 5.27511 -1.25581 5.5969 15.7019 -7.45761 -31.9664 -4.30295 14.7807 -75.08 -45.1416 -35.7251 -172.9 64.2146 174.331 9.7347 8.861 -8.07283 31.6653 -1.36214 -7.68344 48.7834 -9.94689 18.6683 3.10203 51.2896 14.5672 -1.24667 9.86924 2.08149 1.08453 -7.48402 2.61435 2.0294 15.6856 25.8176 3.08245 -6.25368 -0.0155354 -1.34059e-009 8.75198e-006 -1.45983e-008 
-226.17 103.678 -77.2237 -1.36078 -1.00901 89.9102 -3.62666 -4.64101 -2.5881 -1.78265 11.7457 -5.89679 5.34325 -3.56495 -0.334822 0.0462048 0.000530889 0.662642 -5.0216 3.691 -0.738342 2.78448 4.58281 -1.46058 5.02147 15.6593 -7.09005 -32.7939 -4.63767 15.4013 -74.976 -44.6067 -36.7828 -172.546 65.2869 173.632 9.36137 8.94536 -7.53133 31.0692 -1.14826 -7.17791 50.0053 -12.2483 18.2709 3.55468 53.4955 13.6204 -1.25549 9.86821 2.12473 2.38603 -7.61289 3.15448 2.12632 15.4534 25.2969 2.56433 -5.69872 -0.0253108 -1.34059e-009 8.75198e-006 -1.45983e-008 
-226.231 103.831 -75.4538 -0.8375 -1.31183 90.194 -2.36021 -3.61627 -2.41317 -1.11253 10.7874 -6.78523 3.34151 -3.13882 -0.2745 0.0462048 0.000530889 0.662642 -4.35675 4.19024 -0.451532 2.38211 4.77827 -1.07198 5.81393 15.5409 -8.0466 -31.9757 -4.11241 14.296 -76.1213 -44.1661 -37.4658 -172.053 66.5236 173.225 9.7884 8.91656 -7.27364 31.8722 -1.41974 -7.81985 50.4414 -14.6072 18.2735 4.18515 55.9841 12.4179 -1.26483 9.86842 1.67771 3.78645 -6.93077 3.72188 2.3674 15.0727 24.093 2.35571 -5.19406 -0.0352028 -1.34059e-009 8.75198e-006 -1.45983e-008 
